<?xml version="1.0" encoding="UTF-8" standalone="no"?>
<!-- Created with Inkscape (http://www.inkscape.org/) -->

<svg
   xmlns:dc="http://purl.org/dc/elements/1.1/"
   xmlns:cc="http://creativecommons.org/ns#"
   xmlns:rdf="http://www.w3.org/1999/02/22-rdf-syntax-ns#"
   xmlns:svg="http://www.w3.org/2000/svg"
   xmlns="http://www.w3.org/2000/svg"
   xmlns:sodipodi="http://sodipodi.sourceforge.net/DTD/sodipodi-0.dtd"
   xmlns:inkscape="http://www.inkscape.org/namespaces/inkscape"
   id="svg2"
   version="1.1"
   inkscape:version="0.48.5 r10040"
   width="861.0744"
   height="597.30396"
   sodipodi:docname="lobster_silhouette.png">
  <title
     id="title2989">lobster silhouette</title>
  <metadata
     id="metadata8">
    <rdf:RDF>
      <cc:Work
         rdf:about="">
        <dc:format>image/svg+xml</dc:format>
        <dc:type
           rdf:resource="http://purl.org/dc/dcmitype/StillImage" />
        <dc:title>lobster silhouette</dc:title>
        <dc:date>03/02/2015</dc:date>
        <dc:creator>
          <cc:Agent>
            <dc:title>edited by Paul Sherman</dc:title>
          </cc:Agent>
        </dc:creator>
        <dc:rights>
          <cc:Agent>
            <dc:title>pd</dc:title>
          </cc:Agent>
        </dc:rights>
        <dc:publisher>
          <cc:Agent>
            <dc:title>wpclipart</dc:title>
          </cc:Agent>
        </dc:publisher>
        <cc:license
           rdf:resource="http://creativecommons.org/licenses/publicdomain/" />
      </cc:Work>
      <cc:License
         rdf:about="http://creativecommons.org/licenses/publicdomain/">
        <cc:permits
           rdf:resource="http://creativecommons.org/ns#Reproduction" />
        <cc:permits
           rdf:resource="http://creativecommons.org/ns#Distribution" />
        <cc:permits
           rdf:resource="http://creativecommons.org/ns#DerivativeWorks" />
      </cc:License>
    </rdf:RDF>
  </metadata>
  <defs
     id="defs6" />
  <sodipodi:namedview
     pagecolor="#ffffff"
     bordercolor="#666666"
     borderopacity="1"
     objecttolerance="10"
     gridtolerance="10"
     guidetolerance="10"
     inkscape:pageopacity="0"
     inkscape:pageshadow="2"
     inkscape:window-width="1192"
     inkscape:window-height="995"
     id="namedview4"
     showgrid="false"
     fit-margin-top="4"
     fit-margin-left="4"
     fit-margin-right="4"
     fit-margin-bottom="4"
     inkscape:zoom="1.03"
     inkscape:cx="269.07537"
     inkscape:cy="296.8584"
     inkscape:window-x="0"
     inkscape:window-y="0"
     inkscape:window-maximized="0"
     inkscape:current-layer="svg2" />
  <path
     style="fill:#000000"
     d="m 468,592.11872 c -4.49122,-1.50539 -11.67774,-5.34271 -12.50125,-6.67517 -0.35032,-0.56683 -1.05527,-0.77206 -1.56656,-0.45607 -0.51129,0.31599 -2.47188,-2.80973 -4.35686,-6.94605 -2.60502,-5.71633 -4.01403,-7.66786 -5.87311,-8.13446 -3.81294,-0.95699 -5.08209,-4.3597 -4.15127,-11.12997 0.89995,-6.54572 0.75395,-13.08713 -0.55423,-24.83143 -0.49011,-4.4 -1.17585,-15.425 -1.52387,-24.5 -0.55303,-14.42099 -1.16914,-23.22951 -3.1125,-44.5 -0.25125,-2.75 -0.9357,-5.96495 -1.52101,-7.14433 -0.74428,-1.4997 -0.75079,-3.15311 -0.0217,-5.5 0.57339,-1.84562 1.34987,-5.38067 1.7255,-7.85567 0.37563,-2.475 1.04321,-4.95 1.48352,-5.5 1.02907,-1.28545 4.26257,-32.30381 3.55871,-34.13805 -0.6673,-1.73896 -7.04898,-1.14972 -24.5854,2.27004 -16.29286,3.17725 -15.98836,3.05982 -16.6616,6.42601 -0.639,3.19501 -2.45855,5.16677 -4.36215,4.72709 -1.42462,-0.32905 -1.69769,1.48692 -2.00848,13.35674 -0.35609,13.59966 -7.49473,60.35741 -11.50514,75.35817 -0.73521,2.75 -2.21427,8.15 -3.2868,12 -1.07252,3.85 -2.26612,8.8 -2.65242,11 -0.38631,2.2 -1.05006,4.45 -1.47501,5 -0.42494,0.55 -1.07112,2.24895 -1.43595,3.77544 -0.36483,1.52649 -1.55888,3.67099 -2.65346,4.76557 -1.09458,1.09458 -3.7051,5.69563 -5.80116,10.22456 -3.32853,7.19191 -6.86765,12.27014 -14.16117,20.31964 -1.03915,1.14687 -2.43574,3.28437 -3.10353,4.75 -1.26541,2.77728 -2.89399,3.574 -2.89195,1.41479 6.5e-4,-0.6875 0.6039,-4.41034 1.34056,-8.27297 1.7201,-9.01919 6.24766,-18.36613 12.66292,-26.14204 6.61149,-8.01376 7.06442,-9.88449 18.48186,-76.33499 2.4286,-14.13472 3.54862,-22.51218 4.54558,-34 0.54891,-6.325 1.27476,-13.6375 1.61301,-16.25 0.82091,-6.34044 -0.0155,-6.24938 -13.77851,1.5 -9.03707,5.08841 -11.88231,7.2722 -15.30892,11.75 -4.198,5.48582 -5.39571,6.02381 -10.08397,4.52956 -1.68973,-0.53855 -3.38341,1.14932 -10.19724,10.16231 -8.48478,11.22324 -12.67521,16.20212 -22.72038,26.99533 -5.12323,5.50475 -6.30934,6.30627 -8.59066,5.80521 -3.37479,-0.74123 -3.94949,-4e-5 -8.45852,10.90912 -2.02357,4.89584 -4.04427,9.62084 -4.49044,10.5 -0.44617,0.87916 -1.28459,5.27054 -1.86315,9.75862 -0.64744,5.02237 -2.20084,10.69402 -4.0398,14.74975 -2.17854,4.80467 -2.83959,7.50327 -2.44048,9.96272 0.77567,4.77989 -1.09357,5.27468 -3.63759,0.96288 -3.79866,-6.43823 -5.36914,-14.82139 -4.55897,-24.3355 0.3981,-4.675 0.66325,-10.65661 0.58921,-13.29247 -0.11549,-4.11218 0.30251,-5.22957 2.94473,-7.87179 6.15759,-6.15759 1.6753,-4.52061 -19.14864,6.99329 -12.45788,6.88817 -21.51654,13.61467 -26.09089,19.37376 -5.43681,6.84494 -8.37229,9.34554 -12.61424,10.74551 -3.8097,1.25731 -4.23581,1.80927 -7.29042,9.44353 -1.78433,4.45949 -4.9008,10.35817 -6.92548,13.10817 -2.02468,2.75 -3.97782,6.2559 -4.34031,7.7909 -1.03443,4.38036 -2.5082,2.18884 -2.00228,-2.97743 0.51064,-5.21453 8.37104,-24.09546 12.02648,-28.88799 1.30645,-1.71285 2.37536,-4.0242 2.37536,-5.13634 0,-3.52345 36.49717,-27.66506 59.63008,-39.44323 12.5791,-6.40467 14.45421,-7.69661 17.08306,-11.77013 5.51232,-8.54162 14.44095,-26.85723 15.8719,-32.5586 0.35009,-1.39484 1.03667,-2.78338 1.52574,-3.08565 0.4891,-0.30226 0.88925,-1.42301 0.88925,-2.49055 0,-1.06754 0.43844,-1.94098 0.97432,-1.94098 0.53588,0 1.71623,-1.43469 2.62301,-3.18821 1.24966,-2.41658 1.38435,-3.61148 0.55651,-4.93705 -0.89994,-1.44105 -0.52559,-2.20096 2.127,-4.31767 5.23652,-4.17864 7.49886,-6.5738 15.30488,-16.20346 6.52959,-8.05502 8.87806,-12.35361 6.74921,-12.35361 -0.36579,0 -3.47684,2.7 -6.91345,6 -5.30861,5.09759 -6.79768,6 -9.90067,6 -4.42631,0 -7.21301,-1.35981 -10.52081,-5.13376 l -2.5,-2.85231 -4.65802,3.436 c -3.13316,2.31118 -4.87773,4.43635 -5.32918,6.49179 -0.93395,4.25224 -3.98269,6.05828 -10.22683,6.05828 -4.18602,0 -5.52575,0.41108 -6.51804,2 -0.68696,1.1 -1.63802,2 -2.11345,2 -0.47544,0 -2.85788,1.34536 -5.29433,2.9897 -6.5461,4.41792 -8.67772,4.69333 -11.22832,1.45076 -2.63652,-3.35178 -2.68532,-5.21824 -0.20596,-7.87601 2.7065,-2.90125 3.7801,-7.56445 1.74156,-7.56445 -0.85217,0 -1.84405,0.47676 -2.20419,1.05948 -0.36013,0.58271 -3.7716,2.57633 -7.58104,4.43027 -5.83335,2.83892 -8.06675,3.38176 -14.15422,3.44023 -18.37429,0.17648 -44.64721,-5.61638 -65.10708,-14.35532 -5.89068,-2.51606 -10.92729,-4.57466 -11.19246,-4.57466 -1.92207,0 -24.24172,-12.08432 -34.29844,-18.56988 -23.66778,-15.26332 -38.98706,-27.86695 -45.79892,-37.68012 -1.4317,-2.0625 -3.20533,-3.75 -3.9414,-3.75 -0.73608,0 -4.49988,2.72107 -8.364,6.04681 -5.47137,4.70907 -7.02651,6.64485 -7.02942,8.75 -0.006,4.11981 -7.00353,14.52925 -8.65631,12.87647 -0.374643,-0.37464 0.265629,-1.69189 1.422828,-2.92722 C 55.760377,355.05915 58,350.40193 58,348.38047 c 0,-2.96385 -8.513388,2.38418 -11.361633,7.13727 -2.585749,4.31505 -4.784261,11.8928 -4.087416,14.08836 0.998122,3.1448 -1.839581,1.77404 -2.974512,-1.43685 -2.148645,-6.07884 7.193468,-20.51012 16.427752,-25.37687 C 61.22644,340.0401 66.03192,336.53977 70.4253,332.288 l 3.92531,-3.79878 -5.0536,-9.77183 C 64.07727,308.62432 59.01249,294.89462 57.097362,285.64635 55.771793,279.2451 55.670976,262.51404 56.94583,260.49898 c 0.755269,-1.1938 1.27104,-1.01904 2.95142,1 1.11992,1.34562 2.05118,3.00909 2.06948,3.69659 0.0413,1.55083 1.52277,1.59358 4.27018,0.12321 7.93913,-4.24889 31.80312,3.1142 53.20917,16.41737 1.07034,0.66518 5.01244,3.12192 8.76022,5.45942 7.7198,4.81485 9.29621,5.05461 14.7937,2.25 2.15618,-1.1 4.51304,-2 5.23748,-2 0.72443,0 2.50176,-1.35 3.94961,-3 1.44785,-1.65 3.58402,-3 4.74704,-3 1.71134,0 21.92712,-5.4714 36.56587,-9.89655 1.65,-0.49878 7.725,-1.90958 13.5,-3.13511 7.62747,-1.61864 11.06733,-2.83583 12.57378,-4.44918 1.54103,-1.65039 3.72467,-2.39443 8.5,-2.89621 3.53442,-0.37139 8.45122,-1.11391 10.92622,-1.65003 2.475,-0.53613 10.575,-1.83888 18,-2.895 7.425,-1.05612 15.3,-2.43464 17.5,-3.06337 9.64701,-2.757 14.14286,-3.17688 33.25,-3.1053 11.3687,0.0426 20.25,-0.31832 20.25,-0.82289 0,-0.49431 -2.25,-2.51521 -5,-4.49089 -3.0514,-2.19221 -5,-4.34923 -5,-5.53479 0,-2.83309 1.84111,-3.51445 4.06301,-1.50365 2.74254,2.48196 2.47947,-0.0593 -0.31851,-3.07677 -2.91405,-3.14268 -8.45781,-4.39094 -9.33609,-2.10218 -0.848,2.20986 -2.06603,2.03918 -2.69816,-0.37808 -0.40061,-1.53195 -1.36401,-2 -4.11663,-2 -3.92451,0 -4.84844,-1.4386 -1.48826,-2.3173 1.16383,-0.30435 1.90741,-1.13911 1.66273,-1.86663 -0.32518,-0.9669 -3.21513,-1.34284 -10.89252,-1.41698 -6.03869,-0.0583 -11.39995,-0.60936 -12.70051,-1.3054 C 279.79521,222.2656 276,222.90031 276,224.57197 c 0,0.5454 -0.45,0.71352 -1,0.3736 -0.55,-0.33992 -1,-1.49148 -1,-2.55902 0,-2.37956 -1.72958,-2.49568 -4.17739,-0.28044 -2.98029,2.69712 -3.1358,0.89102 -0.38984,-4.52786 1.41198,-2.78641 2.56723,-5.2946 2.56723,-5.57376 0,-0.27916 -1.42881,-1.24643 -3.17514,-2.14949 -1.74633,-0.90306 -6.27772,-3.89855 -10.06975,-6.65664 -8.6656,-6.30283 -25.69467,-15.02059 -37.31903,-19.10488 -3.69791,-1.29929 -4.46346,-1.25418 -8.5,0.50082 -2.43985,1.06079 -5.56108,2.60895 -6.93608,3.44034 -1.375,0.8314 -7,3.71881 -12.5,6.41647 -5.5,2.69767 -11.575,6.22719 -13.5,7.8434 -1.925,1.6162 -6.38143,5.34887 -9.90318,8.29481 -8.1329,6.80315 -10.10541,9.50138 -10.81536,14.79448 -0.64259,4.79084 -6.02731,13.37633 -8.71953,13.90258 -1.46031,0.28545 -1.38966,-0.0131 0.43491,-1.83765 2.11229,-2.11229 5.00316,-7.87364 5.00316,-9.97104 0,-3.05012 -8.45439,2.18851 -11.36163,7.04005 -2.32778,3.88454 -4.85142,11.93025 -4.24102,13.52093 0.311,0.81045 -0.0747,1.4069 -0.90968,1.4069 -2.84665,0 -2.84595,-4.86296 0.002,-11.56313 2.10279,-4.94766 4.11964,-7.65623 8.70344,-11.68844 3.28152,-2.88664 10.12888,-9.07343 15.21636,-13.74843 11.71334,-10.76365 19.80693,-16.31068 35.25722,-24.16394 7.22149,-3.67062 11.94266,-6.62705 11.41903,-7.15068 -2.01197,-2.01197 -21.70115,-6.69106 -36.58538,-8.69443 -24.92784,-3.3552 -32.68209,-3.93639 -60,-4.4971 -55.49174,-1.13897 -63.140774,-0.72901 -83.411265,4.47058 -6.373804,1.63494 -14.168388,3.46706 -17.321298,4.07137 -3.15291,0.60432 -5.991967,1.51848 -6.309017,2.03148 C 5.599599,179.90245 4,179.63974 4,178.10909 c 0,-2.47674 11.508595,-7.26415 27,-11.23161 21.250872,-5.44251 34.1632,-6.5818 75.95792,-6.70196 40.35546,-0.11603 49.23133,0.75576 85.04208,8.35285 4.88622,1.03659 17.24177,4.18798 26,6.63151 4.54663,1.26851 6.54004,1.33248 11.5,0.36905 3.3,-0.641 8.7,-1.60799 12,-2.14888 3.3,-0.54088 7.41783,-1.72569 9.15073,-2.6329 2.97803,-1.55905 3.74541,-1.52259 14,0.66521 5.9671,1.27307 15.57427,3.60592 21.34927,5.1841 5.775,1.57819 13.425,3.61641 17,4.52938 14.04657,3.58717 21.64772,7.02953 35.2001,15.94121 5.33506,3.50818 9.94663,6.37852 10.24794,6.37852 0.3013,0 -1.47624,-2.7495 -3.95011,-6.11001 -2.47386,-3.3605 -4.49793,-6.7355 -4.49793,-7.5 0,-2.27655 0.88239,-1.59538 2.40946,1.86001 1.73103,3.91692 12.22801,15.44586 13.18864,14.48523 0.37444,-0.37444 -0.42052,-2.15554 -1.76657,-3.95801 -1.34606,-1.80247 -3.17755,-4.85222 -4.06997,-6.77722 -0.89243,-1.925 -3.00387,-4.82169 -4.69208,-6.43709 -1.7088,-1.6351 -3.06948,-3.97084 -3.06948,-5.26905 0,-1.98808 0.36866,-2.23944 2.5,-1.7045 1.375,0.3451 2.5,0.20711 2.5,-0.30664 0,-1.51185 -4.77975,-5.56233 -8.70682,-7.37836 -2.1937,-1.01446 -4.2643,-2.98629 -5.21558,-4.9668 -1.0893,-2.26784 -3.19983,-4.08195 -6.8187,-5.86101 -2.8826,-1.4171 -5.2451,-2.86157 -5.25,-3.20992 -0.0119,-0.84925 3.84455,-1.83611 7.2411,-1.85298 3.42906,-0.017 3.47094,-1.36345 0.16722,-5.3764 -1.42053,-1.72549 -4.45803,-5.66812 -6.75,-8.76141 -15.40917,-20.79652 -27.55111,-33.45996 -53.12048,-55.402013 -7.6743,-6.58561 -18.6993,-16.53781 -24.5,-22.116 C 238.24603,61.225207 232.15,55.552627 230.5,54.197677 c -7.70406,-6.326474 -29.65921,-22.75211 -30.41136,-22.75211 -0.46406,0 -1.39069,-0.659019 -2.05917,-1.464486 C 196.38993,28.005555 176.96212,17.260378 169.5,14.20194 158.8981,9.856622 148.6793,7.859243 132.5,6.969871 c -8.98644,-0.493982 -12.64745,-0.235172 -20,1.413872 -4.95,1.110197 -9.88393,2.028279 -10.96429,2.040182 -1.83443,0.02021 -1.85395,-0.08869 -0.29528,-1.647361 3.11719,-3.117184 19.51218,-5.237971 36.25957,-4.690386 21.07175,0.688978 25.35214,1.468666 40.03008,7.291623 14.29116,5.669514 22.40248,10.224102 32.96992,18.512934 3.85,3.019843 12.175,9.192031 18.5,13.715974 15.05397,10.767318 15.71408,11.315768 28,23.263628 5.775,5.6161 16.125,14.75914 23,20.31788 13.31766,10.7679 23.35404,20.580373 34.92686,34.147643 3.93629,4.61466 11.55859,13.03517 16.93846,18.71226 9.0548,9.55505 9.90309,10.20046 11.41703,8.68652 1.51394,-1.51393 1.70493,-1.45541 2.57046,0.78774 0.51424,1.33275 2.10774,3.51413 3.54109,4.8475 1.43336,1.33338 2.6061,3.43873 2.6061,4.67858 0,1.23984 0.675,2.92925 1.5,3.75425 0.825,0.825 1.50224,1.86965 1.50497,2.32143 0.003,0.45179 1.01523,2.08339 2.25,3.62579 l 2.24503,2.80436 4.13992,-2.26816 c 3.50361,-1.91954 4.38635,-2.06365 5.74315,-0.9376 1.19137,0.98875 1.44624,2.31231 0.99212,5.15222 -0.52272,3.26889 -0.23025,4.17465 2.022,6.26196 1.50013,1.39027 2.39188,3.06897 2.07246,3.90136 -0.30837,0.80359 0.12986,2.03416 0.97383,2.73459 0.84397,0.70044 1.27508,1.69327 0.95801,2.2063 -0.77118,1.24779 0.58434,10.84061 1.53183,10.84061 0.41011,0 1.25823,-1.125 1.88473,-2.5 2.02526,-4.44497 7.18195,-1.98781 7.18195,3.42221 0,4.07373 1.98327,9.07779 3.59783,9.07779 0.77119,0 1.40217,-0.45 1.40217,-1 0,-2.2768 1.77752,-0.76695 2.6408,2.24313 0.53238,1.85631 1.70441,3.39225 2.74082,3.59185 0.99588,0.19179 3.11067,1.76988 4.69952,3.50686 2.2367,2.44524 3.08773,2.85513 3.76996,1.81577 0.67511,-1.02852 1.3956,-0.61989 3.08141,1.74761 1.21015,1.6995 3.29646,3.36513 4.63624,3.70139 1.33977,0.33626 4.07645,1.44776 6.08151,2.47 4.27721,2.18064 5.58969,1.7276 4.745,-1.6379 -0.73845,-2.94224 1.1846,-3.33783 2.10645,-0.43331 1.13597,3.57911 5.56999,7.9946 8.02817,7.9946 1.29365,0 2.58267,0.3731 2.8645,0.82911 0.28183,0.456 3.12089,1.40417 6.30902,2.10703 3.18813,0.70286 7.03451,1.73453 8.5475,2.29259 4.54901,1.67788 7.37608,-1.77345 4.26688,-5.20908 -0.81522,-0.90081 -2.53247,-3.62388 -3.8161,-6.05127 -1.75287,-3.31473 -3.08598,-4.56725 -5.35507,-5.03133 -4.52283,-0.92501 -5.42413,-1.78002 -4.74187,-4.49834 0.54183,-2.15881 0.28401,-2.4388 -2.24633,-2.4395 -3.34761,-9.2e-4 -13.4388,-4.58126 -21.62148,-9.81387 -4.25232,-2.71925 -6.32598,-4.86498 -7.91043,-8.18534 -1.18105,-2.475 -3.68849,-6.6375 -5.5721,-9.25 -2.86677,-3.97612 -3.94995,-4.75 -6.64844,-4.75 -1.77303,0 -4.04709,-0.60207 -5.05345,-1.33794 -1.66691,-1.21888 -1.71747,-1.80595 -0.56816,-6.59682 1.15364,-4.8089 1.09274,-5.48589 -0.71171,-7.91206 -1.08531,-1.45925 -2.90797,-2.7927 -4.05035,-2.96321 -3.78443,-0.56489 -4.63039,-2.71275 -2.83538,-7.19893 2.01781,-5.043 2.06719,-12.59671 0.10693,-16.35535 -0.82161,-1.57537 -1.48983,-4.05037 -1.48493,-5.5 0.005,-1.44963 -3.57657,-9.83569 -7.95881,-18.63569 -7.98558,-16.03589 -12.7116,-27.433063 -18.13201,-43.726803 -2.43864,-7.33052 -2.93135,-10.53049 -3.07948,-20 -0.097,-6.200258 0.14339,-12.249232 0.53418,-13.442159 0.64467,-1.967868 0.21993,-2.268274 -4.58112,-3.240157 -2.91042,-0.589159 -6.15438,-1.188127 -7.2088,-1.331041 -6.48224,-0.878585 0.69241,-5.661304 12.53238,-8.354246 13.75788,-3.129165 36.57484,0.605718 51.88475,8.49296 19.57936,10.086744 30.06922,18.884663 39.91735,33.478963 4.25078,6.29938 11.69525,20.61259 14.36678,27.62248 0.31441,0.825 2.16524,5.274663 4.11296,9.888133 1.94772,4.61348 4.26985,10.89426 5.1603,13.95729 0.89045,3.06304 2.65689,7.61734 3.92543,10.12067 1.26853,2.50333 4.25869,10.39755 6.64479,17.54271 4.06043,12.15891 4.33946,13.69718 4.35538,24.0109 0.0179,11.62397 -1.46039,17.27143 -5.8103,22.19619 l -1.95723,2.21589 3.08779,2.88443 c 2.20918,2.06368 2.93034,3.48653 2.53445,5.00042 -0.30434,1.1638 0.0219,4.49366 0.72499,7.39968 0.70308,2.90603 1.18337,6.97119 1.06731,9.03369 -0.1893,3.36408 0.0395,3.75 2.22315,3.75 2.05517,0 2.82799,-0.98376 4.96356,-6.3183 1.39116,-3.47506 3.05059,-9.21256 3.68761,-12.75 2.36265,-13.11989 5.66254,-15.79713 12.29422,-9.97444 3.23192,2.83766 3.37046,3.25217 3.4258,10.25 0.0856,10.82962 2.21958,39.22721 3.58351,47.68788 0.79146,4.9096 1.76421,7.7546 2.89419,8.46463 0.93612,0.58822 1.93611,0.83541 2.2222,0.54932 0.2861,-0.28609 0.93328,-4.09518 1.4382,-8.46463 0.50492,-4.36945 2.9606,-14.74356 5.45707,-23.05357 2.64119,-8.79172 5.21845,-20.08089 6.16396,-27 0.89371,-6.53999 1.81164,-12.79089 2.03985,-13.89089 0.53668,-2.5869 6.92778,-7.64786 8.76674,-6.94219 0.77844,0.29872 2.45632,2.76567 3.72864,5.48212 2.26777,4.84179 2.28027,5.04254 0.63463,10.19953 -0.92328,2.8933 -2.80946,10.83459 -4.19153,17.64732 -1.38206,6.81273 -2.71444,12.71298 -2.96084,13.11167 -0.2464,0.39869 -0.88064,4.53237 -1.40942,9.18597 -0.52878,4.6536 -2.08238,12.47835 -3.45245,17.38833 -4.41345,15.81665 -4.41633,15.64713 0.31911,18.78089 4.71779,3.12209 6.0418,2.78424 6.0418,-1.54167 0,-3.17971 2.33613,-10.1633 8.32321,-24.88126 3.16689,-7.78513 7.43733,-23.19489 9.26449,-33.43071 0.93801,-5.25471 2.90038,-8.12589 6.38379,-9.34022 3.72325,-1.29793 5.77673,0.84924 10.41683,10.89213 1.9083,4.13026 4.37609,8.32989 5.48397,9.33252 1.10789,1.00262 2.27632,3.01379 2.5965,4.46926 0.78222,3.5558 5.24438,6.36157 16.03121,10.08028 4.95,1.70649 13.5,5.31009 19,8.008 15.61654,7.66037 46.1772,20.96989 53,23.08212 2.2,0.68108 5.575,1.82276 7.5,2.53706 1.925,0.7143 6.37561,1.5183 9.89024,1.78668 3.51462,0.26837 6.68192,0.95991 7.03843,1.53676 0.35652,0.57685 2.88091,2.22336 5.60977,3.65892 5.77805,3.03964 12.53753,9.30823 19.90181,18.45649 6.06697,7.53669 7.55975,10.08651 7.55975,12.91282 0,1.75765 -0.31549,1.90029 -2.25,1.01728 -1.2375,-0.56486 -3.26664,-2.58021 -4.50919,-4.47856 -1.80485,-2.75741 -2.91095,-3.45266 -5.5,-3.45712 -8.62186,-0.0148 -14.80442,-4.0307 -23.39708,-15.1975 -2.8613,-3.71848 -5.41555,-5.9914 -7.148,-6.3607 -1.48265,-0.31605 -3.82073,-1.04852 -5.19573,-1.62772 -1.375,-0.57919 -4.75,-1.62836 -7.5,-2.33149 -2.75,-0.70313 -16.25,-6.3177 -30,-12.47682 -13.75,-6.15912 -28.375,-12.33055 -32.5,-13.71429 -4.125,-1.38374 -10.29989,-3.5984 -13.72197,-4.92146 -8.13299,-3.14443 -15.55543,-4.50362 -20.38047,-3.73207 -4.6306,0.74046 -6.89089,-0.73247 -6.91287,-4.50481 -0.0199,-3.41244 -1.58214,-5.94467 -2.8498,-4.6192 -1.00517,1.05101 -4.5205,12.61238 -5.62254,18.49164 -1.12847,6.02027 -5.51567,19.21099 -8.73769,26.27102 -2.75695,6.041 -2.94708,7.0383 -1.76341,9.25 0.72969,1.36344 1.62827,2.47898 1.99685,2.47898 0.69614,0 10.20093,-12.70826 13.21325,-17.66661 0.94675,-1.55837 2.1321,-3.50839 2.63411,-4.33339 0.50202,-0.825 1.48304,-2.72271 2.18004,-4.21713 1.60905,-3.44991 5.54136,-4.8577 8.93879,-3.20014 1.38914,0.67775 3.7564,1.79629 5.26058,2.48565 3.59773,1.64883 4.71944,6.82621 2.28418,10.54289 -1.49818,2.28651 -1.5615,3.36394 -0.52163,8.87503 1.71018,9.06363 2.29052,9.24194 20.07509,6.16793 7.93512,-1.37156 18.02749,-2.78689 22.42749,-3.14517 4.4,-0.35829 12.64591,-1.57051 18.32423,-2.69383 8.93791,-1.76815 11.71707,-1.91402 20.69697,-1.08632 9.5631,0.88145 10.72003,1.22205 14.82217,4.36359 2.44719,1.87412 5.95856,5.56594 7.80303,8.20403 1.84448,2.63809 5.7161,8.03589 8.6036,11.99512 2.8875,3.95922 5.25,7.79628 5.25,8.52679 0,2.06558 -3.32061,0.92291 -4.56366,-1.57041 -1.86163,-3.73405 -4.40635,-6.01368 -9.25956,-8.29496 -2.54687,-1.19717 -7.18465,-4.76256 -10.30619,-7.9231 -5.02725,-5.09005 -6.2633,-5.8244 -10.82127,-6.42904 -2.83016,-0.37543 -7.71154,-0.19742 -10.84753,0.39558 -3.13598,0.593 -14.02679,1.95061 -24.20179,3.01691 -10.175,1.0663 -22.325,2.83879 -27,3.93886 -4.675,1.10007 -10.075,2.02515 -12,2.05573 -1.925,0.0306 -4.39395,0.73123 -5.48655,1.557 -1.84065,1.39115 -1.87495,1.70094 -0.46697,4.2182 1.56638,2.80046 4.35101,3.71158 18.95352,6.20148 3.025,0.5158 8.65,1.67097 12.5,2.56704 3.85,0.89608 8.67927,1.97659 10.73172,2.40113 4.31309,0.89216 6.63615,2.56942 7.80056,5.63203 0.45315,1.1919 2.99377,3.18959 5.64582,4.43933 2.65204,1.24973 7.2969,3.73797 10.3219,5.52942 3.025,1.79145 8.875,4.6993 13,6.4619 4.125,1.76259 8.59226,3.71766 9.92723,4.34459 2.7705,1.30107 11.07277,12.08571 11.07277,14.38351 0,1.70227 9.97177,13.03464 20.25,23.01303 5.97989,5.80543 6.75,6.98302 6.75,10.32148 0,4.96594 2.79468,8.18259 13.03096,14.9985 8.45249,5.62815 10.96904,9.05933 10.96904,14.95568 0,1.69826 1.46967,4.67987 3.75987,7.62787 2.06793,2.66189 5.01094,6.76987 6.54003,9.12884 4.53467,6.99581 7.68661,8.40514 17.7001,7.91424 5.65296,-0.27712 10.05377,-1.10672 13.13887,-2.47681 2.55137,-1.13307 10.65137,-3.32003 18,-4.85993 17.17327,-3.59864 36.24293,-3.95208 44.60736,-0.82676 2.88542,1.07812 5.49955,2.73609 5.80918,3.68437 0.61939,1.897 -2.25679,8.77585 -3.66935,8.77585 -0.48733,0 -0.88606,0.675 -0.88606,1.5 0,0.825 0.59037,1.5 1.31194,1.5 2.00442,0 5.27918,5.03031 6.18456,9.5 1.0127,4.99953 0.72374,8.62433 -1.09945,13.7918 -0.78429,2.22292 -1.16415,4.86664 -0.84413,5.87493 0.40607,1.27943 0.076,1.83327 -1.09252,1.83327 -1.20243,0 -1.47131,0.49326 -0.95394,1.75 0.39625,0.9625 0.94688,2.5375 1.22362,3.5 0.27675,0.9625 0.87606,1.75 1.3318,1.75 0.45574,0 0.81039,3.2625 0.7881,7.25 -0.0349,6.24363 -0.44373,7.88679 -2.94525,11.83755 -1.5976,2.52315 -2.90473,5.32707 -2.90473,6.23095 0,0.91897 -1.10203,1.91999 -2.5,2.27086 -1.375,0.3451 -2.5,1.25367 -2.5,2.01905 0,0.76537 -0.45,1.39159 -1,1.39159 -0.55,0 -1,0.75 -1,1.66667 0,0.91666 -0.2625,1.40416 -0.58333,1.08333 -0.32084,-0.32083 -1.49895,0.33228 -2.61804,1.45137 -1.61906,1.61906 -2.20387,1.76097 -2.86287,0.69469 -0.65736,-1.06363 -0.96446,-0.98485 -1.48895,0.38197 -0.36343,0.94708 -1.24005,1.72197 -1.94804,1.72197 -2.94162,0 -7.24181,5.5746 -8.37456,10.85645 -1.39402,6.50009 -2.74109,9.14355 -4.65939,9.14355 -0.81999,0 -1.46482,0.92164 -1.46482,2.09362 0,1.25262 -0.8034,2.30371 -2,2.61663 -1.1,0.28766 -2,1.14553 -2,1.90638 0,0.76085 -0.9,1.38337 -2,1.38337 -1.1,0 -2,0.46114 -2,1.02475 0,0.56361 -1.2375,1.4729 -2.75,2.02064 -1.5125,0.54773 -3.65,1.3995 -4.75,1.89281 -5.50924,2.4707 -8.14348,2.85056 -9.11269,1.31404 C 793.20376,563.82149 789,564.87516 789,567.04814 c 0,2.19426 -3.03211,6.39743 -4.61501,6.39743 -0.76174,0 -1.38499,0.45 -1.38499,1 0,0.55 -0.70156,1 -1.55902,1 -0.85746,0 -1.33991,0.35452 -1.07212,0.78781 0.26779,0.4333 -0.91773,1.40956 -2.63449,2.16948 -2.31221,1.02348 -3.22244,1.07849 -3.51121,0.21218 -0.21441,-0.64321 -0.85047,-1.16947 -1.41348,-1.16947 -0.56301,0 -0.75334,0.70443 -0.42296,1.56539 0.46946,1.22339 0.13776,1.41846 -1.51824,0.89287 -1.52056,-0.48261 -1.90701,-0.32963 -1.36848,0.54174 0.53887,0.8719 0.15125,1.02409 -1.37477,0.53975 C 766.95635,580.61433 766,580.70838 766,581.19433 c 0,1.03065 -7.86239,0.77194 -11.20772,-0.3688 -1.26075,-0.4299 -2.51728,-0.82263 -2.79228,-0.87272 -1.73193,-0.31546 -7,-3.72686 -7,-4.53292 0,-0.53588 -0.675,-0.97432 -1.5,-0.97432 -0.825,0 -1.5,-0.70156 -1.5,-1.55902 0,-0.92614 -0.46989,-1.26861 -1.15752,-0.84363 -0.79309,0.49016 -0.97999,0.0365 -0.59362,-1.44098 0.31014,-1.186 0.12947,-2.15637 -0.4015,-2.15637 -0.53097,0 -0.7065,-0.41891 -0.39007,-0.9309 0.31644,-0.512 0.16901,-1.18203 -0.32762,-1.48896 -0.49662,-0.30693 -1.19705,-2.12579 -1.55652,-4.04191 -0.35947,-1.91612 -1.38083,-3.89085 -2.26969,-4.38828 -1.10185,-0.61663 -1.71624,-2.6141 -1.93075,-6.27719 -0.17305,-2.95502 -0.57642,-7.84776 -0.89639,-10.87276 -0.31996,-3.025 -0.64313,-6.175 -0.71816,-7 -0.075,-0.825 0.18622,-4.5375 0.58056,-8.25 0.67703,-6.37386 0.6026,-6.75 -1.33562,-6.75 -1.20116,0 -2.41772,0.93333 -2.9328,2.25 -0.48411,1.2375 -1.44777,3.6 -2.14146,5.25 -0.69369,1.65 -1.29896,3.45 -1.34505,4 -0.0461,0.55 -1.31341,1.14163 -2.81628,1.31473 l -2.73249,0.31474 0.63681,-12.56474 c 0.67462,-13.31075 0.23128,-14.59699 -3.78008,-10.96677 -2.76326,2.50072 -4.01607,0.84585 -3.34781,-4.42218 0.32622,-2.57168 0.70296,-5.81982 0.83721,-7.21808 0.13425,-1.39827 0.60219,-3.12173 1.03988,-3.82992 0.50117,-0.81092 0.0576,-1.80467 -1.1982,-2.68426 -2.3433,-1.64131 -2.27244,-5.05287 0.22455,-10.81025 0.92235,-2.12671 1.43814,-4.48921 1.1462,-5.25 -0.30917,-0.80568 0.10707,-1.38327 0.99682,-1.38327 0.8402,0 1.25521,-0.44078 0.92226,-0.97952 -1.31351,-2.1253 -11.98454,7.23291 -11.05793,9.69749 0.25186,0.66989 0.0202,1.48849 -0.51472,1.8191 -0.53495,0.33062 -0.67154,1.0883 -0.30355,1.68373 0.368,0.59544 -0.1032,1.64732 -1.04711,2.33753 -1.34952,0.98679 -1.73133,2.88555 -1.78699,8.88689 -0.0476,5.13669 -0.43559,7.51453 -1.18657,7.27276 -1.87265,-0.60287 -5.36525,-7.90399 -6.5622,-13.71798 -0.62278,-3.025 -1.33468,-6.45873 -1.58201,-7.63051 -0.24734,-1.17178 -1.42863,-2.3865 -2.62509,-2.69938 -1.86369,-0.48737 -1.98596,-0.79713 -0.85332,-2.16188 0.95662,-1.15265 1.01984,-1.89522 0.22873,-2.68633 -0.79111,-0.79111 -0.68266,-1.504 0.39233,-2.57899 2.12022,-2.12021 1.28586,-4.79489 -1.40522,-4.5047 C 686.99406,467.3148 686,466.95074 686,466.37476 c 0,-2.09335 -1.86286,0.16993 -2.48999,3.02521 -0.43834,1.99577 -1.10128,2.75594 -2.07693,2.38155 -0.87773,-0.33682 -1.43308,0.0728 -1.43308,1.05706 0,0.88385 0.5051,1.60699 1.12244,1.60699 0.81198,0 0.82174,0.36234 0.0353,1.30996 -0.78411,0.9448 -0.77155,2.33835 0.0451,4.99915 1.36975,4.46303 0.68302,5.42474 -2.35447,3.2972 -3.66105,-2.5643 -5.72969,-9.09737 -5.79245,-18.29344 L 673,457.57131 l -3.75,0.55583 -3.75,0.55582 3.26787,-2.86869 c 2.92328,-2.5662 3.29235,-3.49242 3.5,-8.78355 0.22193,-5.65483 0.12223,-5.92426 -2.26787,-6.12887 -1.375,-0.11771 -3.25914,0.45056 -4.18699,1.26281 -0.92784,0.81226 -2.14276,1.19515 -2.69982,0.85086 -0.55707,-0.34428 -1.49886,0.28216 -2.09287,1.39209 -0.59402,1.10993 -1.6291,1.91003 -2.30018,1.77801 -0.67108,-0.13203 -1.10764,0.32245 -0.97014,1.00995 0.1375,0.6875 -0.10357,1.25 -0.53571,1.25 -0.43214,0 -0.76964,2.92494 -0.75,6.49986 0.0241,4.38137 -0.35247,6.49991 -1.15527,6.5 -0.65504,8e-5 -1.47364,-0.4572 -1.8191,-1.01617 -0.34546,-0.55897 -1.04702,-0.75742 -1.55902,-0.44098 -0.51199,0.31643 -0.9309,-0.57623 -0.9309,-1.98369 0,-1.65107 -0.55314,-2.55902 -1.55902,-2.55902 -0.85746,0 -1.26411,-0.47716 -0.90368,-1.06036 0.36044,-0.58319 0.20859,-2.27069 -0.33743,-3.75 -0.54602,-1.4793 -1.54396,-4.15214 -2.21764,-5.93964 -0.67368,-1.7875 -1.82187,-3.25 -2.55153,-3.25 -1.05735,0 -1.10093,-0.64754 -0.21468,-3.18982 1.06755,-3.0624 0.92519,-3.35893 -3.56389,-7.42315 C 632.27478,424.15345 626,423.98267 626,430.46103 c 0,1.62735 -0.66607,3.02616 -1.6142,3.38999 -1.09219,0.41911 -1.46042,1.42387 -1.13867,3.10699 0.26154,1.36816 0.029,2.48756 -0.51664,2.48756 -0.99773,0 -0.52584,4.91908 0.79142,8.25 1.11996,2.83199 -1.28754,2.05104 -4.94154,-1.60296 -3.22965,-3.22966 -4.57055,-6.54977 -7.64763,-18.93577 -1.14285,-4.60024 -1.26358,-4.72184 -3.06734,-3.08946 -2.56466,2.32099 -3.21584,1.27914 -1.38945,-2.22303 2.37415,-4.5525 1.89324,-7.65224 -1.72595,-11.12461 -2.4725,-2.3722 -4.3242,-3.19177 -7.74022,-3.42585 -3.61119,-0.24745 -4.55543,0.0309 -4.82332,1.422 -0.18321,0.95132 -0.74397,1.72968 -1.24614,1.72968 -1.7302,0 -0.70011,12.03566 1.24133,14.50381 1.76935,2.24936 2.3953,4.49619 1.25261,4.49619 -1.37266,0 -5.19528,-2.48709 -8.21166,-5.34272 C 581.87289,420.93166 579,413.61912 579,408.26407 c 0,-3.32618 -1.01564,-3.56369 -3.5,-0.8185 -3.41137,3.76953 -4.47922,2.5833 -3.83968,-4.26536 0.65656,-7.03095 0.45146,-7.26734 -8.37605,-9.65441 -3.28448,-0.88816 -4.6651,-0.85934 -6.25,0.13044 -2.58102,1.61187 -2.59395,3.41943 -0.0343,4.78933 1.16955,0.62592 2,2.09382 2,3.53518 0,1.35565 0.8625,3.32732 1.91667,4.38149 2.05033,2.05033 1.78544,3.28999 -0.51444,2.40744 -2.19804,-0.84347 -1.64993,1.22807 1.23079,4.6516 l 2.63301,3.12916 -2.88301,-0.722 c -4.59462,-1.15065 -12.04732,-7.31202 -13.95105,-11.53373 -1.83684,-4.07339 -3.12369,-4.81608 -4.07034,-2.34914 -0.97196,2.53288 -2.36163,1.66534 -2.36163,-1.47432 0,-3.61492 -3.91277,-6.03685 -9.70034,-6.00433 -3.30325,0.0186 -4.18127,0.56043 -6.72058,4.14755 -1.6065,2.26942 -5.0697,5.46197 -7.696,7.09456 -3.59274,2.23337 -4.92445,3.74438 -5.37832,6.10245 -0.33178,1.72375 -1.7529,6.39977 -3.15803,10.39115 -2.06848,5.87566 -3.02811,7.37585 -5.04135,7.88114 -2.71506,0.68144 -9.53267,-0.99903 -12.98289,-3.20014 -4.28967,-2.73665 -34.89206,-8.44015 -37.30025,-6.95181 -2.26803,1.40173 -6.3814,26.25267 -5.51501,33.31894 0.4898,3.99473 0.26155,5.89876 -0.92404,7.7082 -1.42767,2.17888 -1.437,5.32159 -0.10012,33.69481 2.13935,45.40447 2.18675,46.11511 3.98858,59.7918 l 1.64681,12.5 5.56705,5.5 c 3.06187,3.025 6.62326,7.75 7.91418,10.5 1.29093,2.75 3.70781,5.9 5.37085,7 5.10146,3.3743 3.69114,4.40604 -2.97054,2.17315 z m -7.96045,-11.61761 c -2.17034,-3.04795 -6.04386,-5.83412 -6.03477,-4.34072 0.008,1.25749 7.04458,8.56916 7.65739,7.95634 0.30581,-0.3058 -0.42437,-1.93283 -1.62262,-3.61562 z M 353.78489,563.64074 c 3.42927,-5.57327 5.0301,-9.8169 3.29987,-8.74755 C 356.05862,555.52737 350,566.66491 350,567.91705 c 0,1.35053 1.0586,0.15448 3.78489,-4.27631 z m -72.59354,-48.70853 c 0.46522,-3.98492 -0.55128,-6.59703 -1.55219,-3.9887 -0.9447,2.46186 -0.77578,7.50206 0.25143,7.50206 0.48983,0 1.07517,-1.58101 1.30076,-3.51336 z m 44.79461,-76.97256 c 10.34486,-10.38018 10.44826,-10.5312 10.25478,-14.97693 -0.23541,-5.40879 0.33432,-5.81391 11.3757,-8.08892 7.50951,-1.54729 12.30443,-3.71101 27.01411,-12.19017 C 380.8321,399.12884 384,394.92259 384,390.26311 c 0,-2.05245 -0.25718,-2.09117 -8.75,-1.31713 -4.8125,0.43861 -10.9301,0.84294 -13.59466,0.89853 -4.83394,0.10084 -4.86436,0.12306 -13.75,10.04542 C 343.0074,405.35934 339,410.23756 339,410.73044 c 0,0.49288 -2.025,3.26643 -4.5,6.16345 -2.475,2.89702 -4.5,5.90183 -4.5,6.67736 0,2.75155 -5.00677,8.87331 -7.28605,8.90862 -1.76738,0.0274 -2.87297,1.48976 -5.48115,7.25 -5.36438,11.84738 -4.68019,11.70902 8.75316,-1.77022 z m 81.52412,-44.53039 c 0.34546,-0.55897 1.01593,-0.77663 1.48992,-0.48369 0.47399,0.29294 1.14899,0.0679 1.5,-0.5 0.35101,-0.56794 1.07865,-0.76041 1.61699,-0.4277 0.53833,0.33271 1.74473,0.27547 2.6809,-0.1272 0.93616,-0.40266 3.05211,-0.6368 4.70211,-0.52029 2.94687,0.20807 2.96225,0.18451 0.86809,-1.33048 -1.17255,-0.84827 -3.68934,-1.48376 -5.59288,-1.4122 -1.90353,0.0716 -3.94324,-0.16794 -4.53268,-0.53224 -0.58944,-0.36429 -1.33514,-0.0971 -1.65712,0.59388 -0.42252,0.90669 -0.73787,0.93797 -1.13336,0.11239 -0.30137,-0.62911 -1.42946,-0.91332 -2.50686,-0.63158 -2.59584,0.67883 -2.40989,6.27542 0.2085,6.27542 0.95055,0 2.01093,-0.45734 2.35639,-1.01631 z M 254.619,367.99988 c 1.13521,-0.79514 4.13263,-1.96658 6.66092,-2.60321 2.5283,-0.63663 5.34595,-1.9852 6.26145,-2.99681 1.60862,-1.77751 1.74658,-1.75725 4.10704,0.60321 3.50779,3.50779 5.16482,3.04404 7.35159,-2.0575 1.06091,-2.475 2.45973,-4.5 3.10849,-4.5 0.64875,0 2.63853,1.6875 4.42172,3.75 2.91276,3.369 3.71225,3.74023 7.86884,3.65381 2.54467,-0.0529 4.85029,-0.31981 5.12359,-0.59312 0.92977,-0.92977 -3.78276,-10.81069 -5.15597,-10.81069 -0.75167,0 -1.36667,-0.675 -1.36667,-1.5 0,-0.825 0.42772,-1.5 0.95049,-1.5 0.53169,0 0.86215,-3.19447 0.75,-7.25 l -0.20049,-7.25 3.0578,-0.29902 c 2.30024,-0.22495 4.28221,0.65505 8,3.552 3.09767,2.41375 7.74135,4.70767 12.4422,6.14629 7.76117,2.37519 8.33525,2.36155 21.15158,-0.50229 2.11198,-0.47193 2.7888,-0.16018 3.32585,1.5319 1.08919,3.43175 4.92956,5.31967 10.00075,4.91634 2.48443,-0.19759 4.63962,0.008 4.78931,0.45726 0.1497,0.44909 2.18203,0.84288 4.5163,0.8751 2.33427,0.0322 4.49394,0.46278 4.79927,0.95681 0.30532,0.49403 1.02435,0.60824 1.59784,0.25381 0.57349,-0.35444 1.42366,-0.028 1.88926,0.72533 0.67283,1.08866 1.10059,1.11572 2.08445,0.13186 0.98386,-0.98386 0.8385,-1.53996 -0.70836,-2.70984 -1.07044,-0.80957 -2.50875,-1.48625 -3.19625,-1.50375 -0.77775,-0.0198 -1.25,-1.48443 -1.25,-3.87681 0,-2.57502 -0.66059,-4.44284 -2,-5.65499 -1.1,-0.99549 -2,-2.22237 -2,-2.72642 0,-1.43193 -2.69793,-3.77358 -4.34772,-3.77358 -1.15505,0 -1.49715,-1.37629 -1.51981,-6.11423 -0.0182,-3.79989 -0.56535,-6.73339 -1.44557,-7.75 -0.77898,-0.89967 -1.68976,-3.42089 -2.02395,-5.60271 -0.33419,-2.18182 -1.57293,-5.2726 -2.75275,-6.86839 -1.62053,-2.19188 -1.84011,-3.08995 -0.8979,-3.67227 0.83893,-0.51849 1.01992,-1.871 0.55287,-4.13161 -0.38189,-1.84844 -0.93721,-5.29367 -1.23405,-7.65607 -0.38429,-3.05839 -1.22959,-4.74732 -2.93542,-5.86501 -2.6421,-1.73118 -3.26529,-3.61063 -0.8957,-2.70134 2.77182,1.06365 1.56094,-2.07826 -2.894,-7.50915 -2.4167,-2.94613 -5.5927,-7.72578 -7.05777,-10.62144 -2.3323,-4.60971 -3.12322,-5.34081 -6.356,-5.87531 -10.14198,-1.67684 -43.98991,0.0923 -54.49804,2.8484 -3.19319,0.83753 -10.14033,2.00611 -15.43807,2.59685 -8.47898,0.94546 -19.82474,3.99387 -30.00612,8.06213 -2.54451,1.01673 -3.92517,1.04378 -6.36034,0.1246 -2.72898,-1.03007 -5.0279,-0.62815 -18.75,3.2781 -28.39341,8.08271 -33.59066,9.72754 -38.53691,12.19619 -3.86503,1.92901 -5.78442,2.31115 -9.10631,1.813 -3.07233,-0.46073 -5.80076,-0.0444 -10.10275,1.54154 -9.33079,3.43983 -9.38586,3.70575 -1.68903,8.15495 7.12016,4.11585 15.97268,10.51255 20.41527,14.75177 8.95015,8.54044 12.84762,10.13743 17.08958,7.00244 1.49023,-1.10134 2.89521,-2.00244 3.12219,-2.00244 0.22698,0 0.69117,1.74156 1.03154,3.87013 1.0681,6.67951 4.3011,7.47321 9.05294,2.22249 3.89201,-4.30062 8.58382,-0.98237 8.58382,6.07087 0,2.04516 0.41531,3.97515 0.92292,4.28887 2.0634,1.27525 10.27983,1.62426 11.64114,0.49448 0.77576,-0.64383 1.9787,-0.94466 2.67321,-0.66853 1.21245,0.48207 3.9194,5.22507 5.16409,9.0483 0.45737,1.40489 1.46091,1.76931 4.34665,1.57841 4.50614,-0.29809 8.25199,0.79219 8.25199,2.40186 0,2.36426 3.53522,9.68574 4.67857,9.68937 1.82186,0.006 4.2504,2.85847 4.95782,5.82368 1.25336,5.2536 3.9875,6.53267 7.98261,3.73438 z M 376,354.88655 c 0,-0.24254 -0.70156,-0.44098 -1.55902,-0.44098 -0.85746,0 -1.27636,0.45734 -0.9309,1.01631 0.57081,0.92358 2.48992,0.48015 2.48992,-0.57533 z M 156,335.01067 c 0,-0.2392 -0.45035,-1.61941 -1.00078,-3.06714 -0.75606,-1.98859 -1.47474,-2.48181 -2.93909,-2.01704 -1.35196,0.42909 -2.27967,-0.0226 -3.0667,-1.49319 -0.6206,-1.15962 -1.88034,-1.96357 -2.79942,-1.78658 -1.80605,0.34782 -4.45735,-1.83907 -5.48902,-4.52754 -0.35322,-0.92049 -1.56599,-1.67361 -2.69504,-1.67361 -1.21926,0 -2.51536,-1.01514 -3.1919,-2.5 -0.6265,-1.375 -1.95248,-2.5 -2.94663,-2.5 -0.99415,0 -2.43065,-1.18925 -3.19223,-2.64277 -0.89347,-1.70525 -1.6372,-2.23419 -2.09649,-1.49105 -0.98385,1.59191 0.27467,5.13382 1.82417,5.13382 0.69966,0 1.78468,1.125 2.41118,2.5 0.66818,1.46651 1.97473,2.5 3.16051,2.5 1.13017,0 2.02144,0.66136 2.02144,1.5 0,0.825 0.47125,1.5 1.04723,1.5 0.57597,0 3.14023,2.0634 5.69835,4.58533 3.83652,3.78224 5.12597,4.49036 7.36232,4.04309 1.83644,-0.36729 2.89157,-0.0722 3.27026,0.91467 0.49763,1.29679 2.62184,2.12482 2.62184,1.02201 z m -32.70332,-24.03368 c -2.47022,-3.39398 -4.65686,-3.41605 -3.11473,-0.0314 0.62897,1.38044 1.98376,2.5 3.02525,2.5 1.82406,0 1.82701,-0.0813 0.0895,-2.46858 z m 459.09889,-7.28142 c -0.45013,-0.9625 -0.98134,-5.4625 -1.18046,-10 -0.27065,-6.16712 -0.70998,-8.25 -1.74013,-8.25 -1.17449,0 -9.78274,12.03247 -11.14155,15.57348 -0.28208,0.73509 1.74225,1.75729 5.35656,2.70484 8.16042,2.13937 9.71696,2.13431 8.70558,-0.0283 z M 113,302.44557 c 0,-0.55 -0.675,-1 -1.5,-1 -0.825,0 -1.5,-0.675 -1.5,-1.5 0,-1.64277 -2.53606,-2.05968 -3.45771,-0.56842 -0.64549,1.04442 3.20488,4.06842 5.18022,4.06842 0.70262,0 1.27749,-0.45 1.27749,-1 z m 604,-3.55637 c 0,-1.06052 -6.4518,-6.44363 -7.72286,-6.44363 -2.13013,0 -1.44401,1.6818 1.79959,4.41111 2.7968,2.35335 5.92327,3.42617 5.92327,2.03252 z m -613,-2.07896 c 0,-1.13955 -5.06801,-5.36467 -6.43489,-5.36467 -0.73252,0 -1.58249,-0.95845 -1.88882,-2.12988 -0.36936,-1.41241 -1.07722,-1.93024 -2.10138,-1.53724 -0.94193,0.36145 -1.95418,-0.17303 -2.59484,-1.37012 -0.57774,-1.07952 -1.60136,-1.96276 -2.27471,-1.96276 -0.67335,0 -1.78633,-0.9 -2.47329,-2 -0.68696,-1.1 -1.81023,-2 -2.49615,-2 -0.68592,0 -2.57906,-1.59745 -4.20698,-3.54988 -3.04103,-3.64724 -13.18903,-10.12337 -14.23077,-9.08162 -0.97984,0.97984 1.44446,3.1847 6.17918,5.61985 2.53451,1.30355 5.3693,3.78144 6.48029,5.66443 1.22616,2.07818 2.75786,3.34722 4.04002,3.34722 1.13581,0 2.32871,0.68693 2.65089,1.52651 0.32217,0.83958 2.55805,2.68234 4.96861,4.09502 2.41056,1.41268 4.38284,2.98988 4.38284,3.50488 0,0.515 0.7875,1.22383 1.75,1.57519 0.9625,0.35136 2.82319,1.46224 4.13486,2.46862 2.4198,1.85659 4.11514,2.34868 4.11514,1.19445 z m 400.50119,-54.11467 c -1.08483,-21.96314 -1.82796,-25.24498 -4.56034,-20.13947 -3.22576,6.02738 -6.87018,25.18703 -5.23789,27.53688 0.86933,1.25148 7.01562,4.14006 9.08782,4.27102 1.01649,0.0642 1.16745,-2.41526 0.71041,-11.66843 z m -155.16654,-17 c -0.43266,-4.77654 -1.02536,-6.19591 -3.50089,-8.38389 -1.63902,-1.44864 -4.85963,-2.9956 -7.1569,-3.4377 -4.16647,-0.80182 -4.16878,-0.80475 -0.92686,-1.17947 4.07261,-0.47074 4.07137,-1.18643 -0.007,-3.93368 -4.06711,-2.73978 -8.30369,-3.83538 -9.20317,-2.37998 -0.37301,0.60354 -1.11895,0.82494 -1.65766,0.492 -1.4425,-0.89151 0.98426,-3.42728 3.27994,-3.42728 2.99711,0 8.79373,3.38172 15.29444,8.9227 5.43606,4.63351 8.6344,6.2645 8.48572,4.3273 -0.0317,-0.4125 -2.97222,-3.225 -6.53458,-6.25 -9.3721,-7.95837 -25.02993,-15.41223 -38.78599,-18.46393 -1.58298,-0.35117 -4.23564,-1.996 -5.89481,-3.65517 -4.73782,-4.73781 -24.72619,-9.68387 -44.22706,-10.94385 -17.66575,-1.14141 -26.76019,-0.51263 -26.30323,1.81856 0.17842,0.91018 2.77284,2.32187 6.30323,3.42975 3.3,1.03557 12.975,5.35207 21.5,9.59221 8.525,4.24014 15.90698,7.88545 16.4044,8.10069 0.51821,0.22423 0.62734,-1.69455 0.25558,-4.49346 l -0.64883,-4.8848 3.24443,3.67205 c 3.67507,4.15945 7.54013,5.77653 8.82763,3.69332 0.66381,-1.07408 1.08629,-1.09587 2.07515,-0.10701 0.6829,0.6829 2.19063,1.24164 3.35051,1.24164 1.15988,0 2.98238,0.66069 4.05,1.4682 2.50686,1.89609 3.93645,1.89362 5.84014,-0.0101 1.38916,-1.38916 1.60375,-1.29533 2.16663,0.94737 0.58934,2.34813 4.24589,5.5945 6.30135,5.5945 0.51555,0 1.40797,-1.35 1.98317,-3 1.37241,-3.93692 2.94414,-3.81915 3.33648,0.25 0.24017,2.49095 0.83886,3.32463 2.56336,3.56955 1.41797,0.20139 2.25,1.01159 2.25,2.19098 0,2.37856 1.83641,3.55306 3.28713,2.10234 1.47344,-1.47344 2.7064,-1.41173 2.73993,0.13713 0.026,1.20043 6.48531,8.75 7.4864,8.75 0.2676,0 0.48654,-1.125 0.48654,-2.5 0,-2.67832 2.05721,-3.36065 3.76873,-1.25 0.55749,0.6875 1.7667,3.48897 2.68713,6.22548 1.99458,5.93004 3.18005,7.52452 5.59433,7.52452 1.59148,0 1.74362,-0.68104 1.28446,-5.75 z M 363,225.00459 c 0,-1.50117 -1.79534,-3.09702 -2.59007,-2.30228 -0.69748,0.69747 0.68337,3.74326 1.69706,3.74326 0.49115,0 0.89301,-0.64844 0.89301,-1.44098 z m -5.25014,-6.14249 c -0.95295,-0.95296 -2.86349,0.5906 -2.1533,1.7397 0.42212,0.683 0.98146,0.66575 1.69964,-0.0524 0.58876,-0.58876 0.79291,-1.34803 0.45366,-1.68727 z m 48.07361,-114.37719 c -0.72791,-0.99801 -2.61349,-3.43897 -4.19018,-5.424353 -2.63673,-3.32021 -2.74973,-3.79052 -1.4086,-5.8624 2.30744,-3.56469 2.90683,-9.47821 1.13982,-11.24523 -0.82905,-0.82905 -2.09563,-1.50736 -2.81462,-1.50736 -0.71899,0 -1.84376,-1.29526 -2.49951,-2.87836 -0.65574,-1.5831 -2.81604,-3.9456 -4.80066,-5.25 -2.222,-1.46042 -4.05327,-3.7164 -4.76623,-5.87164 -1.00996,-3.05303 -1.66415,-3.56908 -5.12266,-4.04092 -2.18066,-0.29751 -5.40394,-1.56565 -7.16284,-2.8181 C 371.24509,57.483897 371,57.450817 371,59.154967 c 0,2.21111 2.69281,6.2906 4.15233,6.2906 2.21054,0 7.13979,4.45489 8.48099,7.66483 1.01032,2.41805 2.53995,3.82081 5.42522,4.97527 2.69185,1.07706 4.49401,2.63962 5.45972,4.73383 0.79284,1.71934 2.0098,3.91201 2.70434,4.87261 1.00847,1.39478 1.01252,2.14733 0.0201,3.73644 -2.24517,3.59507 -1.55798,7.80263 1.53561,9.402383 1.54654,0.79975 3.87414,3.58209 5.25,6.27568 2.3676,4.6352 2.4853,4.72009 2.79515,2.01591 0.17791,-1.55267 -0.27209,-3.6396 -1,-4.63761 z"
     id="path2987"
     inkscape:connector-curvature="0" />
</svg>
